<svg xmlns="http://www.w3.org/2000/svg" viewBox="0 0 512 512" fill="none">
  <!-- Compass circle -->
  <circle cx="256" cy="256" r="180" stroke="#1a2332" stroke-width="45" fill="none"/>
  <!-- Compass rose - 8 points -->
  <g transform="translate(256,256)">
    <polygon points="0,-130 -16,-42 0,-54 16,-42" fill="#1a2332"/>
    <polygon points="0,130 -16,42 0,54 16,42" fill="#1a2332"/>
    <polygon points="130,0 42,-16 54,0 42,16" fill="#1a2332"/>
    <polygon points="-130,0 -42,-16 -54,0 -42,16" fill="#1a2332"/>
    <polygon points="92,-92 32,-22 38,-32" fill="#1a2332"/>
    <polygon points="-92,-92 -32,-22 -38,-32" fill="#1a2332"/>
    <polygon points="92,92 32,22 38,32" fill="#1a2332"/>
    <polygon points="-92,92 -32,22 -38,32" fill="#1a2332"/>
  </g>
  <!-- Blue arrow -->
  <g transform="translate(256,256)">
    <polygon points="44,-220 110,-130 66,-108 88,-64 22,-142 44,-120" fill="#4a9bd9"/>
    <polygon points="22,-142 88,-64 44,-22" fill="#3a8ac4"/>
  </g>
</svg>
